<svg xmlns="http://www.w3.org/2000/svg" width="64" height="64" viewBox="0 0 64 64" fill="none">
  <defs>
    <linearGradient id="grad1" x1="0" y1="0" x2="64" y2="64" gradientUnits="userSpaceOnUse">
      <stop offset="0%" stop-color="#00d4c8" />
      <stop offset="50%" stop-color="#00b3a8" />
      <stop offset="100%" stop-color="#008080" />
    </linearGradient>
    <linearGradient id="grad2" x1="64" y1="0" x2="0" y2="64" gradientUnits="userSpaceOnUse">
      <stop offset="0%" stop-color="#00f2fe" />
      <stop offset="100%" stop-color="#4facfe" />
    </linearGradient>
    <filter id="neonGlow" x="-20%" y="-20%" width="140%" height="140%">
      <feGaussianBlur stdDeviation="2.5" result="blur" />
      <feMerge>
        <feMergeNode in="blur" />
        <feMergeNode in="SourceGraphic" />
      </feMerge>
    </filter>
  </defs>
  
  <!-- Futuristic Hexagonal Forge Boundary -->
  <polygon points="32,6 56,20 56,48 32,60 8,48 8,20" stroke="url(#grad1)" stroke-width="2" stroke-linecap="round" stroke-linejoin="round" opacity="0.35" />
  
  <!-- Stylized Alpha loop (Alpha return path) -->
  <path d="M16 44C10 38 10 28 16 22C22 16 32 20 38 28L50 44" stroke="url(#grad1)" stroke-width="4" stroke-linecap="round" stroke-linejoin="round" filter="url(#neonGlow)" />
  
  <!-- Intersecting upward arrow (Alpha high-performer returns) -->
  <path d="M14 20C20 28 30 36 38 42C44 46 50 42 48 34L44 18M44 18L32 22M44 18L48 30" stroke="url(#grad2)" stroke-width="4" stroke-linecap="round" stroke-linejoin="round" filter="url(#neonGlow)" />
  
  <!-- Glowing central node representing AI Forge Core -->
  <circle cx="32" cy="32" r="3.5" fill="#00f2fe" filter="url(#neonGlow)" />
</svg>